<svg width="316.987" height="300.4" viewBox="0 0 237.74 225.3" class="displayed_equation" xmlns="http://www.w3.org/2000/svg">
  <path d="M 126.113281 111.625 L 225.34375 111.625 C 225.34375 56.820313 180.917969 12.394531 126.113281 12.394531 C 94.355469 12.394531 64.5 27.605469 45.832031 53.296875" fill="#69ba6c" />
  <path d="M 126.113281 111.625 L 45.835938 53.300781 C 20.566406 88.074219 20.566406 135.175781 45.835938 169.949219" fill="#ec6258" />
  <path d="M 126.113281 111.625 L 45.835938 169.949219 C 64.5 195.644531 94.355469 210.855469 126.113281 210.855469" fill="#fbc04f" />
  <path d="M 126.113281 111.625 L 126.113281 210.855469 C 180.917969 210.855469 225.34375 166.429688 225.34375 111.625" fill="#62aadf" />
  <path d="M1261.132813 1136.75L2253.4375 1136.75M1261.132813 1136.75L458.320313 1720.03125M1261.132813 1136.75L458.320313 553.507813M1261.132813 1136.75L1261.132813 144.445313M2253.4375 1136.75C2253.4375 1684.796875 1809.179688 2129.054688 1261.132813 2129.054688 713.085938 2129.054688 268.828125 1684.796875 268.828125 1136.75 268.828125 588.703125 713.085938 144.445313 1261.132813 144.445313 1809.179688 144.445313 2253.4375 588.703125 2253.4375 1136.75zM2253.4375 1136.75" transform="matrix(.1 0 0 -.1 0 225.3)" fill="none" stroke-width="7.97" stroke="#fff" stroke-miterlimit="10" />
  <path d="M64.777344 113.414063L64.453125 113.414063C64.195313 114.085938 64.050781 114.320313 63.460938 114.320313L61.910156 114.320313 61.128906 114.351563 61.128906 114.296875 62.601563 112.902344C63.785156 111.707031 64.417969 110.9375 64.417969 109.945313 64.417969 108.773438 63.539063 108.015625 62.277344 108.015625 61.195313 108.015625 60.4375 108.640625 60.089844 109.722656L60.359375 109.835938C60.773438 108.996094 61.261719 108.742188 61.988281 108.742188 62.847656 108.742188 63.382813 109.277344 63.382813 110.113281 63.382813 111.285156 62.824219 111.988281 61.71875 113.125L60.023438 114.820313 60.023438 115.199219 64.417969 115.199219 64.777344 113.414063M70.421875 111.664063C70.421875 109.367188 69.417969 108.035156 67.976563 108.035156 66.359375 108.035156 65.5 109.511719 65.5 111.628906 65.5 113.605469 66.160156 115.324219 67.957031 115.324219 69.707031 115.324219 70.421875 113.570313 70.421875 111.664063zM69.339844 111.730469C69.339844 113.871094 68.835938 114.921875 67.957031 114.921875 67.0625 114.921875 66.570313 113.851563 66.570313 111.6875 66.570313 109.476563 67.0625 108.417969 67.945313 108.417969 68.859375 108.417969 69.339844 109.464844 69.339844 111.730469M73.878906 109.386719C73.878906 110.480469 73.3125 111.40625 72.5625 111.40625 72.207031 111.40625 71.972656 111.171875 71.972656 110.390625 71.972656 109.53125 72.207031 108.394531 73.1875 108.394531 73.566406 108.394531 73.878906 108.730469 73.878906 109.386719zM77.917969 113.070313C77.917969 112.1875 77.449219 111.742188 76.804688 111.742188 75.542969 111.742188 74.859375 112.824219 74.859375 114.050781 74.859375 114.921875 75.320313 115.421875 76.089844 115.421875 77.09375 115.421875 77.917969 114.484375 77.917969 113.070313zM77.539063 113.058594C77.539063 114.160156 76.960938 115.054688 76.1875 115.054688 75.855469 115.054688 75.632813 114.785156 75.632813 114.128906 75.632813 113.125 75.875 112.042969 76.835938 112.042969 77.214844 112.042969 77.539063 112.378906 77.539063 113.058594zM77.238281 107.769531L76.734375 107.769531C75.808594 108.707031 75.519531 108.761719 75.007813 108.761719 74.113281 108.761719 73.921875 108.09375 73.109375 108.09375 72.027344 108.09375 71.203125 109.054688 71.203125 110.382813 71.203125 111.238281 71.636719 111.773438 72.417969 111.773438 73.566406 111.773438 74.257813 110.636719 74.257813 109.453125 74.257813 109.265625 74.226563 109.0625 74.179688 108.90625L74.203125 108.886719C74.515625 109.019531 74.671875 109.0625 74.960938 109.0625 75.53125 109.0625 75.820313 108.90625 76.109375 108.707031L76.167969 108.707031 72.183594 115.433594 72.71875 115.433594 77.238281 107.769531M95.554688 166.101563L95.554688 165.789063C94.527344 165.789063 94.113281 165.585938 94.113281 165.039063L94.113281 158.972656 93.789063 158.972656 91.625 159.585938 91.625 159.953125C91.972656 159.839844 92.539063 159.773438 92.765625 159.773438 93.042969 159.773438 93.132813 159.929688 93.132813 160.320313L93.132813 165.039063C93.132813 165.597656 92.742188 165.789063 91.691406 165.789063L91.691406 166.101563 95.554688 166.101563M100.953125 159.976563L101.132813 159.070313 98.074219 159.070313 97.382813 161.984375 97.515625 162.148438C97.671875 162.148438 97.726563 162.148438 98.019531 162.171875 99.558594 162.25 100.429688 162.707031 100.429688 164.101563 100.429688 165.261719 99.726563 165.6875 98.933594 165.6875 98.21875 165.6875 97.851563 165.140625 97.40625 165.140625 97.125 165.140625 96.957031 165.363281 96.957031 165.621094 96.957031 166.03125 97.382813 166.246094 98.242188 166.246094 100.015625 166.246094 101.242188 165.375 101.242188 163.65625 101.242188 161.90625 99.871094 161.382813 98.554688 161.28125L98.03125 161.246094 98.328125 159.976563 100.953125 159.976563M105.078125 160.289063C105.078125 161.382813 104.511719 162.304688 103.761719 162.304688 103.40625 162.304688 103.171875 162.070313 103.171875 161.292969 103.171875 160.433594 103.40625 159.296875 104.386719 159.296875 104.765625 159.296875 105.078125 159.628906 105.078125 160.289063zM109.117188 163.96875C109.117188 163.085938 108.648438 162.640625 108.003906 162.640625 106.742188 162.640625 106.0625 163.722656 106.0625 164.953125 106.0625 165.820313 106.519531 166.324219 107.289063 166.324219 108.292969 166.324219 109.117188 165.386719 109.117188 163.96875zM108.738281 163.957031C108.738281 165.0625 108.160156 165.953125 107.390625 165.953125 107.054688 165.953125 106.832031 165.6875 106.832031 165.03125 106.832031 164.023438 107.078125 162.941406 108.035156 162.941406 108.414063 162.941406 108.738281 163.277344 108.738281 163.957031zM108.4375 158.671875L107.9375 158.671875C107.007813 159.605469 106.71875 159.664063 106.207031 159.664063 105.3125 159.664063 105.121094 158.992188 104.308594 158.992188 103.226563 158.992188 102.402344 159.953125 102.402344 161.28125 102.402344 162.140625 102.839844 162.675781 103.617188 162.675781 104.765625 162.675781 105.460938 161.539063 105.460938 160.355469 105.460938 160.164063 105.425781 159.964844 105.382813 159.808594L105.402344 159.785156C105.714844 159.917969 105.871094 159.964844 106.160156 159.964844 106.730469 159.964844 107.019531 159.808594 107.3125 159.605469L107.367188 159.605469 103.382813 166.335938 103.917969 166.335938 108.4375 158.671875M163.34375 150.945313C163.34375 150.585938 163.121094 150.25 162.671875 150.25 162.238281 150.25 162.015625 150.5625 162.015625 150.945313 162.015625 151.324219 162.21875 151.578125 162.664063 151.578125 163.121094 151.578125 163.34375 151.3125 163.34375 150.945313zM167.101563 150.945313C167.101563 150.585938 166.878906 150.25 166.433594 150.25 165.996094 150.25 165.773438 150.5625 165.773438 150.945313 165.773438 151.324219 165.976563 151.578125 166.421875 151.578125 166.878906 151.578125 167.101563 151.3125 167.101563 150.945313zM170.863281 150.945313C170.863281 150.585938 170.640625 150.25 170.195313 150.25 169.757813 150.25 169.535156 150.5625 169.535156 150.945313 169.535156 151.324219 169.734375 151.578125 170.183594 151.578125 170.640625 151.578125 170.863281 151.3125 170.863281 150.945313M135.066406 73.335938L135.066406 72.566406 133.929688 72.566406 133.929688 67.90625 133.246094 67.90625 129.84375 72.632813 129.84375 73.335938 132.9375 73.335938 132.9375 75.101563 133.929688 75.101563 133.929688 73.335938zM132.9375 72.566406L130.460938 72.566406 130.460938 72.523438 132.890625 69.121094 132.9375 69.121094 132.9375 72.566406M140.523438 71.5625C140.523438 69.265625 139.515625 67.9375 138.078125 67.9375 136.460938 67.9375 135.601563 69.410156 135.601563 71.53125 135.601563 73.503906 136.257813 75.222656 138.054688 75.222656 139.808594 75.222656 140.523438 73.472656 140.523438 71.5625zM139.4375 71.628906C139.4375 73.773438 138.9375 74.820313 138.054688 74.820313 137.164063 74.820313 136.671875 73.75 136.671875 71.585938 136.671875 69.378906 137.164063 68.316406 138.042969 68.316406 138.960938 68.316406 139.4375 69.367188 139.4375 71.628906M143.980469 69.285156C143.980469 70.382813 143.410156 71.304688 142.664063 71.304688 142.304688 71.304688 142.070313 71.070313 142.070313 70.292969 142.070313 69.433594 142.304688 68.296875 143.289063 68.296875 143.667969 68.296875 143.980469 68.628906 143.980469 69.285156zM148.019531 72.96875C148.019531 72.085938 147.550781 71.640625 146.902344 71.640625 145.640625 71.640625 144.960938 72.722656 144.960938 73.953125 144.960938 74.820313 145.417969 75.324219 146.1875 75.324219 147.191406 75.324219 148.019531 74.386719 148.019531 72.96875zM147.640625 72.957031C147.640625 74.0625 147.058594 74.953125 146.289063 74.953125 145.953125 74.953125 145.730469 74.6875 145.730469 74.03125 145.730469 73.023438 145.976563 71.941406 146.9375 71.941406 147.316406 71.941406 147.640625 72.277344 147.640625 72.957031zM147.339844 67.671875L146.835938 67.671875C145.910156 68.605469 145.617188 68.660156 145.105469 68.660156 144.214844 68.660156 144.023438 67.992188 143.210938 67.992188 142.128906 67.992188 141.300781 68.953125 141.300781 70.28125 141.300781 71.140625 141.738281 71.675781 142.519531 71.675781 143.667969 71.675781 144.359375 70.535156 144.359375 69.355469 144.359375 69.164063 144.324219 68.964844 144.28125 68.808594L144.304688 68.785156C144.617188 68.917969 144.773438 68.964844 145.0625 68.964844 145.632813 68.964844 145.921875 68.808594 146.210938 68.605469L146.265625 68.605469 142.285156 75.335938 142.820313 75.335938 147.339844 67.671875M124.0625 55.730469C124.0625 53.519531 122.738281 52.035156 120.515625 52.035156 118.308594 52.035156 116.957031 53.5625 116.957031 55.828125 116.957031 58.195313 118.296875 59.632813 120.515625 59.632813 122.714844 59.632813 124.0625 58.0625 124.0625 55.730469zM122.894531 55.761719C122.894531 58.003906 122.113281 59.164063 120.527344 59.164063 118.921875 59.164063 118.128906 57.859375 118.128906 55.761719 118.128906 53.71875 119.042969 52.503906 120.484375 52.503906 121.933594 52.503906 122.894531 53.753906 122.894531 55.761719M126.640625 54.121094L126.371094 54.121094 124.992188 54.457031 124.992188 54.769531C124.992188 54.769531 125.113281 54.746094 125.335938 54.746094 125.738281 54.746094 125.738281 54.949219 125.738281 55.351563L125.738281 58.417969C125.738281 59.042969 125.660156 59.175781 124.921875 59.175781L124.921875 59.5 127.714844 59.5 127.714844 59.175781C126.878906 59.175781 126.664063 59.066406 126.664063 58.363281L126.664063 55.820313C126.929688 55.371094 127.289063 54.902344 127.546875 54.902344 127.679688 54.902344 127.902344 55.28125 128.269531 55.28125 128.515625 55.28125 128.761719 55.105469 128.761719 54.679688 128.761719 54.300781 128.550781 54.054688 128.113281 54.054688 127.578125 54.054688 127.242188 54.445313 126.675781 55.273438L126.640625 55.273438 126.640625 54.121094M132.136719 58.808594C132.203125 59.296875 132.3125 59.554688 132.804688 59.554688 133.375 59.554688 133.640625 59.320313 134.011719 58.785156L133.84375 58.609375C133.6875 58.773438 133.53125 58.886719 133.320313 58.886719 133.085938 58.886719 132.984375 58.796875 132.984375 58.339844L132.984375 55.808594C132.984375 54.648438 132.527344 54.089844 131.3125 54.089844 130.09375 54.089844 129.347656 54.691406 129.347656 55.316406 129.347656 55.683594 129.59375 55.851563 129.816406 55.851563 130.128906 55.851563 130.304688 55.683594 130.304688 55.339844 130.304688 54.667969 130.417969 54.433594 131.054688 54.433594 131.722656 54.433594 132.058594 54.804688 132.058594 55.773438L132.058594 56.265625C131.097656 56.566406 129.121094 56.855469 129.121094 58.328125 129.121094 59.042969 129.59375 59.578125 130.453125 59.578125 131.164063 59.578125 131.566406 59.265625 132.09375 58.808594zM132.058594 58.472656C131.679688 58.785156 131.277344 58.964844 130.910156 58.964844 130.429688 58.964844 130.105469 58.617188 130.105469 58.0625 130.105469 57.191406 131.042969 56.890625 132.058594 56.632813L132.058594 58.472656M139.464844 56.074219C139.464844 54.792969 138.984375 54.089844 137.972656 54.089844 137.269531 54.089844 136.777344 54.492188 136.175781 55.027344L136.128906 55.027344 136.140625 54.121094 135.882813 54.121094 134.46875 54.445313 134.46875 54.769531C134.46875 54.769531 134.578125 54.746094 134.769531 54.746094 135.070313 54.746094 135.238281 54.835938 135.238281 55.238281L135.238281 58.371094C135.238281 58.996094 135.203125 59.1875 134.457031 59.1875L134.457031 59.5 137.011719 59.5 137.011719 59.1875C136.207031 59.1875 136.164063 58.996094 136.164063 58.371094L136.164063 55.507813C136.496094 55.203125 136.910156 54.804688 137.515625 54.804688 138.015625 54.804688 138.539063 55.015625 138.539063 56.355469L138.539063 58.371094C138.539063 58.996094 138.507813 59.1875 137.714844 59.1875L137.714844 59.5 140.292969 59.5 140.292969 59.1875C139.542969 59.1875 139.464844 58.996094 139.464844 58.371094L139.464844 56.074219M142.027344 57.445313C141.503906 57.847656 141.113281 58.316406 141.113281 58.71875 141.113281 59.03125 141.359375 59.332031 141.738281 59.523438L141.738281 59.566406C141.136719 60.148438 140.835938 60.527344 140.835938 60.894531 140.835938 61.507813 141.269531 62.121094 142.730469 62.121094 144.136719 62.121094 145.789063 61.609375 145.789063 60.113281 145.789063 58.832031 144.71875 58.785156 143.3125 58.785156 142.285156 58.785156 141.996094 58.675781 141.996094 58.339844 141.996094 58.148438 142.171875 57.746094 142.285156 57.59375 142.574219 57.691406 142.886719 57.757813 143.242188 57.757813 144.414063 57.757813 145.21875 57.101563 145.21875 56.0625 145.21875 55.507813 144.972656 55.136719 144.816406 54.914063L144.816406 54.859375 145.867188 54.890625 145.867188 54.289063 144.425781 54.367188C144.425781 54.367188 143.925781 54.089844 143.1875 54.089844 142.007813 54.089844 141.167969 54.792969 141.167969 55.90625 141.167969 56.632813 141.492188 57.113281 142.027344 57.425781zM143.109375 54.492188C143.824219 54.492188 144.226563 55.09375 144.226563 55.996094 144.226563 57.054688 143.8125 57.367188 143.253906 57.367188 142.53125 57.367188 142.148438 56.820313 142.148438 55.863281 142.148438 54.925781 142.53125 54.492188 143.109375 54.492188zM142.015625 59.609375C142.171875 59.609375 142.382813 59.621094 143.277344 59.632813 144.023438 59.644531 145.21875 59.621094 145.21875 60.425781 145.21875 60.90625 144.695313 61.484375 143.378906 61.484375 142.242188 61.484375 141.703125 61.160156 141.703125 60.515625 141.703125 60.28125 141.78125 60.023438 142.015625 59.609375M150.730469 57.90625C150.371094 58.371094 150.027344 58.773438 149.121094 58.773438 148.230469 58.773438 147.382813 58.070313 147.382813 56.53125L150.90625 56.53125C150.851563 54.96875 150.050781 54.089844 148.832031 54.089844 147.527344 54.089844 146.480469 54.980469 146.480469 56.84375 146.480469 58.640625 147.515625 59.609375 148.855469 59.609375 150.003906 59.609375 150.539063 58.910156 150.941406 58.0625zM147.371094 56.121094C147.460938 55.082031 147.90625 54.535156 148.664063 54.535156 149.457031 54.535156 149.828125 55.292969 149.859375 56.121094L147.371094 56.121094M151.734375 57.671875L151.769531 59.589844 152.003906 59.589844 152.238281 59.332031 152.257813 59.332031C152.550781 59.453125 152.882813 59.621094 153.53125 59.621094 154.535156 59.621094 155.40625 59.21875 155.40625 58.171875 155.40625 57.347656 154.859375 56.933594 153.84375 56.398438 152.90625 55.917969 152.539063 55.640625 152.539063 55.203125 152.539063 54.703125 152.929688 54.46875 153.441406 54.46875 154.121094 54.46875 154.535156 54.792969 154.78125 55.851563L155.082031 55.851563 155.046875 54.144531 154.824219 54.144531 154.636719 54.378906 154.625 54.378906C154.34375 54.246094 154.011719 54.089844 153.453125 54.089844 152.492188 54.089844 151.746094 54.578125 151.746094 55.496094 151.746094 56.320313 152.203125 56.710938 153.21875 57.222656 154.257813 57.738281 154.46875 57.949219 154.46875 58.472656 154.46875 58.996094 154.066406 59.210938 153.507813 59.210938 152.683594 59.210938 152.257813 58.820313 152.023438 57.671875L151.734375 57.671875M55.664063 99.5L55.664063 99.164063C55.0625 99.164063 54.839844 98.910156 54.515625 98.171875L51.871094 92.113281 51.414063 92.113281 49.050781 97.714844C48.515625 98.988281 48.359375 99.164063 47.734375 99.164063L47.734375 99.5 50.078125 99.5 50.078125 99.164063C49.550781 99.164063 49.328125 99.097656 49.328125 98.785156 49.328125 98.585938 49.382813 98.417969 49.453125 98.238281L49.953125 97.054688 52.808594 97.054688 53.246094 98.0625C53.390625 98.394531 53.433594 98.597656 53.433594 98.753906 53.433594 99.144531 53 99.164063 52.664063 99.164063L52.664063 99.5zM52.640625 96.609375L50.121094 96.609375 51.382813 93.488281 51.414063 93.488281 52.640625 96.609375M57.664063 94.121094L57.382813 94.121094 55.980469 94.433594 55.980469 94.757813C55.980469 94.757813 56.191406 94.734375 56.335938 94.734375 56.703125 94.734375 56.757813 94.882813 56.757813 95.304688L56.757813 100.828125C56.757813 101.453125 56.648438 101.640625 55.945313 101.640625L55.945313 101.953125 58.769531 101.953125 58.769531 101.632813C57.898438 101.632813 57.6875 101.484375 57.6875 100.761719L57.6875 99.296875 57.730469 99.296875C58.054688 99.523438 58.433594 99.609375 58.859375 99.609375 60.195313 99.609375 61.300781 98.484375 61.300781 96.585938 61.300781 95.128906 60.53125 94.089844 59.425781 94.089844 58.769531 94.089844 58.234375 94.433594 57.695313 95.058594L57.664063 95.058594zM57.6875 95.527344C57.898438 95.25 58.378906 94.847656 58.96875 94.847656 59.792969 94.847656 60.285156 95.496094 60.285156 96.898438 60.285156 98.453125 59.695313 99.175781 58.914063 99.175781 58.289063 99.175781 57.898438 98.675781 57.6875 98.441406L57.6875 95.527344M63.664063 94.121094L63.382813 94.121094 61.980469 94.433594 61.980469 94.757813C61.980469 94.757813 62.191406 94.734375 62.335938 94.734375 62.703125 94.734375 62.757813 94.882813 62.757813 95.304688L62.757813 100.828125C62.757813 101.453125 62.648438 101.640625 61.945313 101.640625L61.945313 101.953125 64.769531 101.953125 64.769531 101.632813C63.898438 101.632813 63.6875 101.484375 63.6875 100.761719L63.6875 99.296875 63.730469 99.296875C64.054688 99.523438 64.433594 99.609375 64.859375 99.609375 66.195313 99.609375 67.300781 98.484375 67.300781 96.585938 67.300781 95.128906 66.53125 94.089844 65.425781 94.089844 64.769531 94.089844 64.234375 94.433594 63.695313 95.058594L63.664063 95.058594zM63.6875 95.527344C63.898438 95.25 64.378906 94.847656 64.96875 94.847656 65.792969 94.847656 66.285156 95.496094 66.285156 96.898438 66.285156 98.453125 65.695313 99.175781 64.914063 99.175781 64.289063 99.175781 63.898438 98.675781 63.6875 98.441406L63.6875 95.527344M70.601563 99.175781C69.796875 99.175781 69.742188 99.019531 69.742188 98.371094L69.742188 91.621094 69.460938 91.621094 67.992188 92.015625 67.992188 92.316406C67.992188 92.316406 68.15625 92.292969 68.347656 92.292969 68.625 92.292969 68.816406 92.316406 68.816406 92.773438L68.816406 98.371094C68.816406 98.996094 68.769531 99.175781 68.035156 99.175781L68.035156 99.5 70.601563 99.5 70.601563 99.175781M75.53125 97.90625C75.171875 98.371094 74.828125 98.773438 73.921875 98.773438 73.03125 98.773438 72.183594 98.070313 72.183594 96.53125L75.707031 96.53125C75.652344 94.96875 74.851563 94.089844 73.632813 94.089844 72.328125 94.089844 71.28125 94.980469 71.28125 96.84375 71.28125 98.640625 72.316406 99.609375 73.65625 99.609375 74.804688 99.609375 75.339844 98.910156 75.742188 98.0625zM72.171875 96.121094C72.261719 95.082031 72.707031 94.535156 73.464844 94.535156 74.257813 94.535156 74.625 95.292969 74.660156 96.121094L72.171875 96.121094M76.535156 97.671875L76.570313 99.589844 76.804688 99.589844 77.039063 99.332031 77.058594 99.332031C77.351563 99.453125 77.683594 99.621094 78.332031 99.621094 79.335938 99.621094 80.207031 99.21875 80.207031 98.171875 80.207031 97.347656 79.660156 96.933594 78.644531 96.398438 77.707031 95.917969 77.339844 95.640625 77.339844 95.203125 77.339844 94.703125 77.726563 94.46875 78.242188 94.46875 78.921875 94.46875 79.335938 94.792969 79.582031 95.851563L79.882813 95.851563 79.847656 94.144531 79.625 94.144531 79.4375 94.378906 79.425781 94.378906C79.144531 94.246094 78.8125 94.089844 78.253906 94.089844 77.292969 94.089844 76.546875 94.578125 76.546875 95.496094 76.546875 96.320313 77.003906 96.710938 78.019531 97.222656 79.054688 97.738281 79.269531 97.949219 79.269531 98.472656 79.269531 98.996094 78.867188 99.210938 78.308594 99.210938 77.484375 99.210938 77.058594 98.820313 76.824219 97.671875L76.535156 97.671875M85.664063 149.996094C86.589844 149.75 87.246094 149.304688 87.246094 148.3125 87.246094 147.207031 86.5 146.570313 84.515625 146.570313L81.5 146.570313 81.5 146.90625C82.40625 146.90625 82.585938 147.027344 82.585938 147.921875L82.585938 152.484375C82.585938 153.410156 82.40625 153.566406 81.5 153.566406L81.5 153.898438 84.9375 153.898438C86.601563 153.898438 87.605469 153.195313 87.605469 151.925781 87.605469 150.710938 86.609375 150.195313 85.664063 150.039063zM83.609375 149.859375L83.609375 147.039063C83.832031 147.015625 84.066406 147.003906 84.28125 147.003906 85.640625 147.003906 86.140625 147.53125 86.140625 148.398438 86.140625 149.414063 85.71875 149.859375 84.367188 149.859375zM83.609375 150.328125L84.390625 150.328125C85.429688 150.328125 86.433594 150.675781 86.433594 151.945313 86.433594 153.363281 85.375 153.488281 84.414063 153.488281 84.144531 153.488281 83.878906 153.476563 83.609375 153.453125L83.609375 150.328125M91.4375 153.207031C91.503906 153.699219 91.613281 153.957031 92.105469 153.957031 92.675781 153.957031 92.941406 153.722656 93.3125 153.1875L93.144531 153.007813C92.988281 153.175781 92.832031 153.285156 92.617188 153.285156 92.382813 153.285156 92.285156 153.195313 92.285156 152.738281L92.285156 150.207031C92.285156 149.046875 91.828125 148.488281 90.609375 148.488281 89.394531 148.488281 88.648438 149.09375 88.648438 149.714844 88.648438 150.085938 88.890625 150.25 89.117188 150.25 89.429688 150.25 89.605469 150.085938 89.605469 149.738281 89.605469 149.070313 89.71875 148.835938 90.355469 148.835938 91.023438 148.835938 91.359375 149.203125 91.359375 150.171875L91.359375 150.664063C90.398438 150.964844 88.421875 151.257813 88.421875 152.726563 88.421875 153.441406 88.890625 153.976563 89.75 153.976563 90.464844 153.976563 90.867188 153.664063 91.390625 153.207031zM91.359375 152.875C90.976563 153.1875 90.578125 153.363281 90.210938 153.363281 89.730469 153.363281 89.40625 153.019531 89.40625 152.460938 89.40625 151.589844 90.34375 151.289063 91.359375 151.03125L91.359375 152.875M98.765625 150.476563C98.765625 149.191406 98.285156 148.488281 97.273438 148.488281 96.570313 148.488281 96.078125 148.890625 95.476563 149.425781L95.429688 149.425781 95.441406 148.523438 95.183594 148.523438 93.769531 148.847656 93.769531 149.171875C93.769531 149.171875 93.878906 149.148438 94.070313 149.148438 94.371094 149.148438 94.539063 149.234375 94.539063 149.640625L94.539063 152.773438C94.539063 153.398438 94.503906 153.585938 93.757813 153.585938L93.757813 153.898438 96.3125 153.898438 96.3125 153.585938C95.507813 153.585938 95.464844 153.398438 95.464844 152.773438L95.464844 149.90625C95.796875 149.605469 96.210938 149.203125 96.8125 149.203125 97.316406 149.203125 97.839844 149.414063 97.839844 150.753906L97.839844 152.773438C97.839844 153.398438 97.804688 153.585938 97.015625 153.585938L97.015625 153.898438 99.59375 153.898438 99.59375 153.585938C98.84375 153.585938 98.765625 153.398438 98.765625 152.773438L98.765625 150.476563M103.335938 153.207031C103.402344 153.699219 103.515625 153.957031 104.007813 153.957031 104.574219 153.957031 104.84375 153.722656 105.210938 153.1875L105.042969 153.007813C104.886719 153.175781 104.730469 153.285156 104.519531 153.285156 104.285156 153.285156 104.183594 153.195313 104.183594 152.738281L104.183594 150.207031C104.183594 149.046875 103.726563 148.488281 102.511719 148.488281 101.296875 148.488281 100.546875 149.09375 100.546875 149.714844 100.546875 150.085938 100.792969 150.25 101.015625 150.25 101.328125 150.25 101.507813 150.085938 101.507813 149.738281 101.507813 149.070313 101.617188 148.835938 102.253906 148.835938 102.921875 148.835938 103.257813 149.203125 103.257813 150.171875L103.257813 150.664063C102.296875 150.964844 100.324219 151.257813 100.324219 152.726563 100.324219 153.441406 100.792969 153.976563 101.652344 153.976563 102.367188 153.976563 102.765625 153.664063 103.292969 153.207031zM103.257813 152.875C102.878906 153.1875 102.476563 153.363281 102.109375 153.363281 101.628906 153.363281 101.304688 153.019531 101.304688 152.460938 101.304688 151.589844 102.242188 151.289063 103.257813 151.03125L103.257813 152.875M110.566406 150.476563C110.566406 149.191406 110.085938 148.488281 109.070313 148.488281 108.367188 148.488281 107.878906 148.890625 107.273438 149.425781L107.230469 149.425781 107.242188 148.523438 106.984375 148.523438 105.570313 148.847656 105.570313 149.171875C105.570313 149.171875 105.679688 149.148438 105.867188 149.148438 106.171875 149.148438 106.339844 149.234375 106.339844 149.640625L106.339844 152.773438C106.339844 153.398438 106.304688 153.585938 105.554688 153.585938L105.554688 153.898438 108.113281 153.898438 108.113281 153.585938C107.308594 153.585938 107.265625 153.398438 107.265625 152.773438L107.265625 149.90625C107.597656 149.605469 108.011719 149.203125 108.613281 149.203125 109.117188 149.203125 109.640625 149.414063 109.640625 150.753906L109.640625 152.773438C109.640625 153.398438 109.605469 153.585938 108.8125 153.585938L108.8125 153.898438 111.390625 153.898438 111.390625 153.585938C110.644531 153.585938 110.566406 153.398438 110.566406 152.773438L110.566406 150.476563M115.136719 153.207031C115.203125 153.699219 115.3125 153.957031 115.804688 153.957031 116.375 153.957031 116.640625 153.722656 117.011719 153.1875L116.84375 153.007813C116.6875 153.175781 116.53125 153.285156 116.320313 153.285156 116.085938 153.285156 115.984375 153.195313 115.984375 152.738281L115.984375 150.207031C115.984375 149.046875 115.527344 148.488281 114.3125 148.488281 113.09375 148.488281 112.347656 149.09375 112.347656 149.714844 112.347656 150.085938 112.59375 150.25 112.816406 150.25 113.128906 150.25 113.304688 150.085938 113.304688 149.738281 113.304688 149.070313 113.417969 148.835938 114.054688 148.835938 114.722656 148.835938 115.058594 149.203125 115.058594 150.171875L115.058594 150.664063C114.097656 150.964844 112.121094 151.257813 112.121094 152.726563 112.121094 153.441406 112.59375 153.976563 113.453125 153.976563 114.164063 153.976563 114.566406 153.664063 115.09375 153.207031zM115.058594 152.875C114.679688 153.1875 114.277344 153.363281 113.910156 153.363281 113.429688 153.363281 113.105469 153.019531 113.105469 152.460938 113.105469 151.589844 114.042969 151.289063 115.058594 151.03125L115.058594 152.875M117.535156 152.070313L117.570313 153.988281 117.804688 153.988281 118.039063 153.734375 118.058594 153.734375C118.351563 153.855469 118.683594 154.023438 119.332031 154.023438 120.335938 154.023438 121.207031 153.621094 121.207031 152.570313 121.207031 151.746094 120.660156 151.335938 119.644531 150.796875 118.707031 150.320313 118.339844 150.039063 118.339844 149.605469 118.339844 149.101563 118.726563 148.867188 119.242188 148.867188 119.921875 148.867188 120.335938 149.191406 120.582031 150.25L120.882813 150.25 120.847656 148.546875 120.625 148.546875 120.4375 148.78125 120.425781 148.78125C120.144531 148.644531 119.8125 148.488281 119.253906 148.488281 118.292969 148.488281 117.546875 148.980469 117.546875 149.894531 117.546875 150.71875 118.003906 151.109375 119.019531 151.625 120.054688 152.136719 120.269531 152.351563 120.269531 152.875 120.269531 153.398438 119.867188 153.609375 119.308594 153.609375 118.484375 153.609375 118.058594 153.21875 117.824219 152.070313L117.535156 152.070313M147.4375 132.96875L147.4375 133.304688C148.148438 133.304688 148.382813 133.429688 148.382813 134.085938L148.382813 138.882813C148.382813 139.820313 148.261719 139.964844 147.390625 139.964844L147.390625 140.300781 150.539063 140.300781 150.539063 139.964844C149.632813 139.964844 149.410156 139.84375 149.410156 138.929688L149.410156 137.019531C149.53125 137.078125 149.824219 137.109375 150.046875 137.109375 151.507813 137.109375 152.96875 136.5625 152.96875 134.820313 152.96875 133.339844 151.640625 132.96875 150.214844 132.96875zM149.410156 133.449219C149.644531 133.429688 149.855469 133.40625 150.078125 133.40625 151.285156 133.40625 151.863281 133.976563 151.863281 134.976563 151.863281 136.273438 151.21875 136.652344 150.011719 136.652344 149.789063 136.652344 149.53125 136.628906 149.410156 136.609375L149.410156 133.449219M157.628906 138.703125C157.273438 139.171875 156.925781 139.574219 156.023438 139.574219 155.132813 139.574219 154.28125 138.871094 154.28125 137.332031L157.808594 137.332031C157.753906 135.769531 156.949219 134.890625 155.734375 134.890625 154.429688 134.890625 153.378906 135.78125 153.378906 137.644531 153.378906 139.441406 154.417969 140.410156 155.757813 140.410156 156.90625 140.410156 157.441406 139.710938 157.84375 138.859375zM154.273438 136.921875C154.359375 135.882813 154.808594 135.335938 155.566406 135.335938 156.359375 135.335938 156.726563 136.09375 156.757813 136.921875L154.273438 136.921875M161.636719 139.609375C161.703125 140.097656 161.8125 140.355469 162.304688 140.355469 162.875 140.355469 163.140625 140.121094 163.511719 139.585938L163.34375 139.40625C163.1875 139.574219 163.03125 139.6875 162.820313 139.6875 162.585938 139.6875 162.484375 139.597656 162.484375 139.140625L162.484375 136.609375C162.484375 135.445313 162.027344 134.890625 160.8125 134.890625 159.59375 134.890625 158.847656 135.492188 158.847656 136.117188 158.847656 136.484375 159.09375 136.652344 159.316406 136.652344 159.628906 136.652344 159.804688 136.484375 159.804688 136.140625 159.804688 135.46875 159.917969 135.234375 160.554688 135.234375 161.222656 135.234375 161.558594 135.601563 161.558594 136.574219L161.558594 137.0625C160.597656 137.367188 158.621094 137.65625 158.621094 139.128906 158.621094 139.84375 159.09375 140.378906 159.953125 140.378906 160.664063 140.378906 161.066406 140.066406 161.59375 139.609375zM161.558594 139.273438C161.179688 139.585938 160.777344 139.765625 160.410156 139.765625 159.929688 139.765625 159.605469 139.417969 159.605469 138.859375 159.605469 137.992188 160.542969 137.6875 161.558594 137.433594L161.558594 139.273438M168.152344 138.648438C167.648438 139.296875 167.269531 139.574219 166.546875 139.574219 165.398438 139.574219 164.851563 138.617188 164.851563 137.253906 164.851563 135.972656 165.398438 135.300781 166.300781 135.300781 167.257813 135.300781 166.890625 136.574219 167.71875 136.574219 168.03125 136.574219 168.1875 136.394531 168.1875 136.070313 168.1875 135.425781 167.539063 134.890625 166.488281 134.890625 164.882813 134.890625 163.96875 136.027344 163.96875 137.777344 163.96875 139.328125 164.804688 140.410156 166.199219 140.410156 167.394531 140.410156 167.9375 139.710938 168.363281 138.804688L168.152344 138.648438M170.640625 136.296875C171.1875 135.792969 171.589844 135.601563 172.023438 135.601563 172.929688 135.601563 173.050781 136.375 173.050781 137.289063L173.050781 139.21875C173.050781 139.753906 173.007813 139.976563 172.238281 139.976563L172.238281 140.300781 174.804688 140.300781 174.804688 139.976563C174.101563 139.976563 173.976563 139.765625 173.976563 139.171875L173.976563 136.953125C173.976563 136.039063 173.765625 134.890625 172.484375 134.890625 171.890625 134.890625 171.378906 135.144531 170.675781 135.804688L170.640625 135.804688 170.640625 132.421875 170.339844 132.421875 168.84375 132.8125 168.84375 133.125C168.84375 133.125 168.992188 133.105469 169.167969 133.105469 169.46875 133.105469 169.714844 133.160156 169.714844 133.550781L169.714844 139.261719C169.714844 139.886719 169.515625 139.976563 168.933594 139.976563L168.933594 140.300781 171.46875 140.300781 171.46875 139.976563C170.695313 139.976563 170.640625 139.796875 170.640625 139.21875L170.640625 136.296875M179.628906 138.703125C179.273438 139.171875 178.925781 139.574219 178.023438 139.574219 177.132813 139.574219 176.28125 138.871094 176.28125 137.332031L179.808594 137.332031C179.753906 135.769531 178.949219 134.890625 177.734375 134.890625 176.429688 134.890625 175.378906 135.78125 175.378906 137.644531 175.378906 139.441406 176.417969 140.410156 177.757813 140.410156 178.90625 140.410156 179.441406 139.710938 179.84375 138.859375zM176.273438 136.921875C176.359375 135.882813 176.808594 135.335938 177.566406 135.335938 178.359375 135.335938 178.726563 136.09375 178.757813 136.921875L176.273438 136.921875M180.632813 138.46875L180.667969 140.390625 180.902344 140.390625 181.136719 140.132813 181.160156 140.132813C181.449219 140.253906 181.785156 140.421875 182.429688 140.421875 183.4375 140.421875 184.304688 140.019531 184.304688 138.972656 184.304688 138.148438 183.757813 137.734375 182.742188 137.199219 181.804688 136.71875 181.4375 136.441406 181.4375 136.003906 181.4375 135.503906 181.828125 135.269531 182.34375 135.269531 183.023438 135.269531 183.4375 135.59375 183.679688 136.652344L183.980469 136.652344 183.949219 134.945313 183.726563 134.945313 183.535156 135.179688 183.523438 135.179688C183.246094 135.046875 182.910156 134.890625 182.351563 134.890625 181.394531 134.890625 180.648438 135.378906 180.648438 136.296875 180.648438 137.121094 181.101563 137.511719 182.117188 138.023438 183.15625 138.539063 183.367188 138.75 183.367188 139.273438 183.367188 139.796875 182.96875 140.007813 182.410156 140.007813 181.582031 140.007813 181.160156 139.617188 180.925781 138.46875L180.632813 138.46875" />
</svg>